<mxfile host="app.diagrams.net" agent="Mozilla/5.0 (Windows NT 10.0; Win64; x64) AppleWebKit/537.36 (KHTML, like Gecko) Chrome/140.0.0.0 Safari/537.36" version="28.2.5">
  <diagram id="Ht1M8jgEwFfnCIfOTk4-" name="Page-1">
    <mxGraphModel dx="2080" dy="1097" grid="1" gridSize="10" guides="1" tooltips="1" connect="1" arrows="1" fold="1" page="1" pageScale="1" pageWidth="1169" pageHeight="827" math="0" shadow="0">
      <root>
        <mxCell id="0" />
        <mxCell id="1" parent="0" />
        <mxCell id="x1D1yTWZLBSYKsChOuBf-1" value="&lt;b&gt;&lt;font style=&quot;font-size: 23px;&quot;&gt;Client&lt;/font&gt;&lt;/b&gt;" style="sketch=0;aspect=fixed;pointerEvents=1;shadow=0;dashed=0;html=1;strokeColor=none;labelPosition=center;verticalLabelPosition=bottom;verticalAlign=top;align=center;fillColor=#00188D;shape=mxgraph.azure.computer" vertex="1" parent="1">
          <mxGeometry x="20" y="365" width="133.33" height="120" as="geometry" />
        </mxCell>
        <mxCell id="x1D1yTWZLBSYKsChOuBf-9" value="" style="rounded=1;whiteSpace=wrap;html=1;" vertex="1" parent="1">
          <mxGeometry x="340" y="240" width="820" height="360" as="geometry" />
        </mxCell>
        <mxCell id="x1D1yTWZLBSYKsChOuBf-10" value="API - Gateway" style="shape=hexagon;perimeter=hexagonPerimeter2;whiteSpace=wrap;html=1;fixedSize=1;fillColor=#dae8fc;strokeColor=#6c8ebf;" vertex="1" parent="1">
          <mxGeometry x="280" y="374" width="120" height="80" as="geometry" />
        </mxCell>
        <mxCell id="x1D1yTWZLBSYKsChOuBf-11" value="&lt;b&gt;&lt;font style=&quot;font-size: 16px;&quot;&gt;Auth-service&lt;/font&gt;&lt;/b&gt;" style="rounded=0;whiteSpace=wrap;html=1;fillColor=#ffe6cc;strokeColor=#d79b00;" vertex="1" parent="1">
          <mxGeometry x="500" y="260" width="140" height="70" as="geometry" />
        </mxCell>
        <mxCell id="x1D1yTWZLBSYKsChOuBf-15" value="&lt;b&gt;&lt;font style=&quot;font-size: 16px;&quot;&gt;Patient-service&lt;/font&gt;&lt;/b&gt;" style="rounded=0;whiteSpace=wrap;html=1;fillColor=#ffe6cc;strokeColor=#d79b00;" vertex="1" parent="1">
          <mxGeometry x="530" y="462" width="140" height="70" as="geometry" />
        </mxCell>
        <mxCell id="x1D1yTWZLBSYKsChOuBf-17" value="&lt;b&gt;&lt;font style=&quot;font-size: 16px;&quot;&gt;Billing-service&lt;/font&gt;&lt;/b&gt;" style="rounded=0;whiteSpace=wrap;html=1;fillColor=#ffe6cc;strokeColor=#d79b00;" vertex="1" parent="1">
          <mxGeometry x="970" y="270" width="140" height="70" as="geometry" />
        </mxCell>
        <mxCell id="x1D1yTWZLBSYKsChOuBf-19" value="&lt;b&gt;&lt;font style=&quot;font-size: 16px;&quot;&gt;Analytics-service&lt;/font&gt;&lt;/b&gt;" style="rounded=0;whiteSpace=wrap;html=1;fillColor=#ffe6cc;strokeColor=#d79b00;" vertex="1" parent="1">
          <mxGeometry x="980" y="449.5" width="140" height="70" as="geometry" />
        </mxCell>
        <mxCell id="x1D1yTWZLBSYKsChOuBf-21" value=".proto" style="whiteSpace=wrap;html=1;shape=mxgraph.basic.document" vertex="1" parent="1">
          <mxGeometry x="559.05" y="430" width="60" height="50" as="geometry" />
        </mxCell>
        <mxCell id="x1D1yTWZLBSYKsChOuBf-22" value=".proto" style="whiteSpace=wrap;html=1;shape=mxgraph.basic.document" vertex="1" parent="1">
          <mxGeometry x="1070" y="240" width="60" height="50" as="geometry" />
        </mxCell>
        <mxCell id="x1D1yTWZLBSYKsChOuBf-23" value=".proto" style="whiteSpace=wrap;html=1;shape=mxgraph.basic.document" vertex="1" parent="1">
          <mxGeometry x="1080" y="420.5" width="60" height="50" as="geometry" />
        </mxCell>
        <mxCell id="x1D1yTWZLBSYKsChOuBf-24" value="Mysql" style="sketch=0;points=[[0,0,0],[0.25,0,0],[0.5,0,0],[0.75,0,0],[1,0,0],[0,1,0],[0.25,1,0],[0.5,1,0],[0.75,1,0],[1,1,0],[0,0.25,0],[0,0.5,0],[0,0.75,0],[1,0.25,0],[1,0.5,0],[1,0.75,0]];outlineConnect=0;dashed=0;verticalLabelPosition=bottom;verticalAlign=top;align=center;html=1;fontSize=12;fontStyle=0;aspect=fixed;shape=mxgraph.aws4.resourceIcon;resIcon=mxgraph.aws4.database;" vertex="1" parent="1">
          <mxGeometry x="640" y="256" width="74" height="74" as="geometry" />
        </mxCell>
        <mxCell id="x1D1yTWZLBSYKsChOuBf-26" value="Mysql" style="sketch=0;points=[[0,0,0],[0.25,0,0],[0.5,0,0],[0.75,0,0],[1,0,0],[0,1,0],[0.25,1,0],[0.5,1,0],[0.75,1,0],[1,1,0],[0,0.25,0],[0,0.5,0],[0,0.75,0],[1,0.25,0],[1,0.5,0],[1,0.75,0]];outlineConnect=0;dashed=0;verticalLabelPosition=bottom;verticalAlign=top;align=center;html=1;fontSize=12;fontStyle=0;aspect=fixed;shape=mxgraph.aws4.resourceIcon;resIcon=mxgraph.aws4.database;" vertex="1" parent="1">
          <mxGeometry x="670" y="500" width="74" height="74" as="geometry" />
        </mxCell>
        <mxCell id="x1D1yTWZLBSYKsChOuBf-27" value="" style="sketch=0;points=[[0,0,0],[0.25,0,0],[0.5,0,0],[0.75,0,0],[1,0,0],[0,1,0],[0.25,1,0],[0.5,1,0],[0.75,1,0],[1,1,0],[0,0.25,0],[0,0.5,0],[0,0.75,0],[1,0.25,0],[1,0.5,0],[1,0.75,0]];outlineConnect=0;fillColor=#fff2cc;strokeColor=#d6b656;dashed=0;verticalLabelPosition=bottom;verticalAlign=top;align=center;html=1;fontSize=12;fontStyle=0;aspect=fixed;shape=mxgraph.aws4.resourceIcon;resIcon=mxgraph.aws4.analytics;" vertex="1" parent="1">
          <mxGeometry x="1010" y="425.5" width="40" height="40" as="geometry" />
        </mxCell>
        <mxCell id="x1D1yTWZLBSYKsChOuBf-29" value="&lt;font style=&quot;font-size: 17px;&quot;&gt;gRPC Calls&lt;/font&gt;" style="shape=doubleArrow;whiteSpace=wrap;html=1;rotation=-15;arrowWidth=0.5368427360096631;arrowSize=0.18940031788280734;" vertex="1" parent="1">
          <mxGeometry x="660" y="360.5" width="302.71" height="60" as="geometry" />
        </mxCell>
        <mxCell id="x1D1yTWZLBSYKsChOuBf-31" value="" style="shape=doubleArrow;whiteSpace=wrap;html=1;rotation=-30;arrowWidth=0.30635268471240995;arrowSize=0.2397911966876285;" vertex="1" parent="1">
          <mxGeometry x="381.34" y="305" width="110" height="60" as="geometry" />
        </mxCell>
        <mxCell id="x1D1yTWZLBSYKsChOuBf-32" value="" style="shape=doubleArrow;whiteSpace=wrap;html=1;rotation=30;arrowWidth=0.30635268471240995;arrowSize=0.2397911966876285;" vertex="1" parent="1">
          <mxGeometry x="400.0013972081441" y="440.00076211353314" width="110" height="60" as="geometry" />
        </mxCell>
        <mxCell id="x1D1yTWZLBSYKsChOuBf-39" value="&lt;font style=&quot;font-size: 17px;&quot;&gt;Kafka Calls&lt;/font&gt;" style="shape=doubleArrow;whiteSpace=wrap;html=1;arrowWidth=0.4652696362016749;arrowSize=0.26190509406887563;" vertex="1" parent="1">
          <mxGeometry x="730" y="462" width="240" height="54.5" as="geometry" />
        </mxCell>
        <mxCell id="x1D1yTWZLBSYKsChOuBf-44" value="" style="shape=doubleArrow;whiteSpace=wrap;html=1;" vertex="1" parent="1">
          <mxGeometry x="160" y="390" width="100" height="60" as="geometry" />
        </mxCell>
      </root>
    </mxGraphModel>
  </diagram>
</mxfile>
